<mxfile host="app.diagrams.net" modified="2024-05-16T20:29:22.536Z" agent="Mozilla/5.0 (Windows NT 10.0; Win64; x64; rv:125.0) Gecko/20100101 Firefox/125.0" etag="fElhl_aXX8O6BmfUKbMA" version="24.3.1" type="device">
  <diagram id="R2lEEEUBdFMjLlhIrx00" name="Page-1">
    <mxGraphModel dx="662" dy="345" grid="1" gridSize="10" guides="1" tooltips="1" connect="1" arrows="1" fold="1" page="1" pageScale="1" pageWidth="850" pageHeight="1100" math="0" shadow="0" extFonts="Permanent Marker^https://fonts.googleapis.com/css?family=Permanent+Marker">
      <root>
        <mxCell id="0" />
        <mxCell id="1" parent="0" />
        <mxCell id="rpL9eednPGexUsjs9589-1" value="Monsi&lt;br&gt;(SSI Wallet)" style="whiteSpace=wrap;html=1;aspect=fixed;" vertex="1" parent="1">
          <mxGeometry x="150" y="370" width="80" height="80" as="geometry" />
        </mxCell>
        <mxCell id="rpL9eednPGexUsjs9589-7" value="" style="edgeStyle=orthogonalEdgeStyle;rounded=0;orthogonalLoop=1;jettySize=auto;html=1;startArrow=classic;startFill=1;" edge="1" parent="1" source="rpL9eednPGexUsjs9589-2" target="rpL9eednPGexUsjs9589-1">
          <mxGeometry relative="1" as="geometry" />
        </mxCell>
        <mxCell id="rpL9eednPGexUsjs9589-9" value="Encrypt, Decrypt, Verify" style="edgeLabel;html=1;align=center;verticalAlign=middle;resizable=0;points=[];" vertex="1" connectable="0" parent="rpL9eednPGexUsjs9589-7">
          <mxGeometry x="-0.1933" y="3" relative="1" as="geometry">
            <mxPoint x="-12" y="-3" as="offset" />
          </mxGeometry>
        </mxCell>
        <mxCell id="rpL9eednPGexUsjs9589-2" value="Janus&lt;br&gt;(Mail Server)" style="whiteSpace=wrap;html=1;aspect=fixed;" vertex="1" parent="1">
          <mxGeometry x="400" y="370" width="80" height="80" as="geometry" />
        </mxCell>
        <mxCell id="rpL9eednPGexUsjs9589-3" value="Mailserver" style="ellipse;shape=cloud;whiteSpace=wrap;html=1;" vertex="1" parent="1">
          <mxGeometry x="590" y="330" width="120" height="80" as="geometry" />
        </mxCell>
        <mxCell id="rpL9eednPGexUsjs9589-4" value="communicatesWith" style="edgeStyle=orthogonalEdgeStyle;rounded=0;orthogonalLoop=1;jettySize=auto;html=1;exitX=1;exitY=0.5;exitDx=0;exitDy=0;entryX=0.07;entryY=0.4;entryDx=0;entryDy=0;entryPerimeter=0;" edge="1" parent="1" source="rpL9eednPGexUsjs9589-2" target="rpL9eednPGexUsjs9589-3">
          <mxGeometry x="-0.3947" y="-10" relative="1" as="geometry">
            <mxPoint as="offset" />
          </mxGeometry>
        </mxCell>
        <mxCell id="rpL9eednPGexUsjs9589-12" style="edgeStyle=orthogonalEdgeStyle;rounded=0;orthogonalLoop=1;jettySize=auto;html=1;exitX=0.5;exitY=1;exitDx=0;exitDy=0;" edge="1" parent="1" source="rpL9eednPGexUsjs9589-11" target="rpL9eednPGexUsjs9589-1">
          <mxGeometry relative="1" as="geometry" />
        </mxCell>
        <mxCell id="rpL9eednPGexUsjs9589-13" value="issuesVCs" style="edgeLabel;html=1;align=center;verticalAlign=middle;resizable=0;points=[];" vertex="1" connectable="0" parent="rpL9eednPGexUsjs9589-12">
          <mxGeometry x="-0.619" y="1" relative="1" as="geometry">
            <mxPoint as="offset" />
          </mxGeometry>
        </mxCell>
        <mxCell id="rpL9eednPGexUsjs9589-11" value="University&lt;br&gt;(Issuer)" style="whiteSpace=wrap;html=1;aspect=fixed;" vertex="1" parent="1">
          <mxGeometry x="230" y="230" width="80" height="80" as="geometry" />
        </mxCell>
      </root>
    </mxGraphModel>
  </diagram>
</mxfile>
